<?xml version="1.0" encoding="UTF-8" standalone="no"?>
<svg width="1440px" height="762px" viewBox="0 0 1440 762" version="1.1" xmlns="http://www.w3.org/2000/svg" xmlns:xlink="http://www.w3.org/1999/xlink">
    <!-- Generator: Sketch 39.1 (31720) - http://www.bohemiancoding.com/sketch -->
    <title>Combined Shape</title>
    <desc>Created with Sketch.</desc>
    <defs>
        <path d="M1014.06947,103.090933 C1047.75418,65.5883678 1096.62241,42 1151,42 C1173.01873,42 1194.13413,45.8676087 1213.70392,52.9605369 C1244.08403,30.3683031 1281.73085,17 1322.5,17 C1385.5858,17 1441.19543,49.0092964 1473.97357,97.6725804 C1500.93532,82.0300785 1531.08306,71.2722065 1563.20567,66.6100937 C1574.27354,58.6727906 1587.84107,54 1602.5,54 C1617.90355,54 1632.10202,59.159574 1643.46144,67.8447497 C1667.33672,72.0712592 1690.04414,79.6795234 1711.07105,90.1569234 C1738.34388,74.1668679 1770.10142,65 1804,65 C1905.62039,65 1988,147.379606 1988,249 C1988,345.007304 1914.46967,423.840679 1820.65252,432.25662 C1778.5063,511.244225 1695.28082,565 1599.5,565 C1589.07678,565 1578.80226,564.363393 1568.71318,563.126939 C1532.13577,656.151952 1441.5077,722 1335.5,722 C1229.14056,722 1138.26299,655.71426 1101.92457,562.200069 C1061.10895,591.049866 1011.28393,608 957.5,608 C867.093657,608 787.873164,560.107682 743.825233,488.309757 C710.818785,519.72043 666.160885,539 617,539 C569.780285,539 526.714965,521.212919 494.13871,491.973426 C467.801089,602.116015 368.713059,684 250.5,684 C112.15267,684 0,571.84733 0,433.5 C0,346.075907 44.7847677,269.111857 112.66391,224.298243 C100.150759,202.394552 93,177.032351 93,150 C93,67.1572875 160.157288,0 243,0 C311.048547,0 368.513691,45.3129403 386.867941,107.411333 C390.20929,107.138893 393.588425,107 397,107 C454.881304,107 503.424682,146.980414 516.520898,200.832006 C545.408274,181.966186 579.923492,171 617,171 C636.260311,171 654.829448,173.95927 672.277534,179.447933 C689.474367,139.032406 724.866305,108.222694 768.168955,97.303189 C768.057026,95.8835269 768,94.448423 768,93 C768,63.1766235 792.176624,39 822,39 C844.144467,39 863.175672,52.3294576 871.507881,71.4026384 C879.572169,64.8957992 889.831128,61 901,61 C922.109193,61 939.96808,74.9162172 945.902874,94.0748664 C954.092233,87.7576416 964.357295,84 975.5,84 C991.228233,84 1005.20784,91.4867603 1014.06947,103.090933 Z" id="path-1"></path>
        <mask id="mask-2" maskContentUnits="userSpaceOnUse" maskUnits="objectBoundingBox" x="-20" y="-20" width="2028" height="762">
            <rect x="-20" y="-20" width="2028" height="762" fill="white"></rect>
            <use xlink:href="#path-1" fill="black"></use>
        </mask>
    </defs>
    <g id="Home" stroke="none" stroke-width="1" fill="none" fill-rule="evenodd">
        <g id="Home-D2" transform="translate(0.000000, -504.000000)">
            <g id="Hero" transform="translate(-118.000000, 0.000000)">
                <g id="Clouds-(composite)" transform="translate(0.000000, 524.000000)">
                    <g id="Combined-Shape">
                        <use fill="#FFFFFF" fill-rule="evenodd" xlink:href="#path-1"></use>
                        <use stroke-opacity="0.2" stroke="#FFFFFF" mask="url(#mask-2)" stroke-width="40" xlink:href="#path-1"></use>
                    </g>
                </g>
            </g>
        </g>
    </g>
</svg>